<?xml version="1.0" encoding="UTF-8"?>
<svg width="112px" height="112px" viewBox="0 0 112 112" version="1.1" xmlns="http://www.w3.org/2000/svg" xmlns:xlink="http://www.w3.org/1999/xlink">
    <title>icons / 112 / cheap</title>
    <g id="Page-1" stroke="none" stroke-width="1" fill="none" fill-rule="evenodd">
        <g id="01---Homepage" transform="translate(-664.000000, -3746.000000)">
            <g id="icons-/-112-/-cheap" transform="translate(664.000000, 3746.000000)">
                <circle id="Oval" fill="#E6EAFE" cx="56" cy="56" r="56"></circle>
                <rect id="Rectangle" stroke="#0831EE" stroke-width="2" fill="#FFFFFF" transform="translate(37.535534, 33.535534) rotate(-45.000000) translate(-37.535534, -33.535534) " x="32.5355339" y="20.5355339" width="10" height="26" rx="5"></rect>
                <path d="M71.6353524,43.4429643 L71.70423,43.4245086 C74.3445096,42.7170478 77.0635584,44.2609614 77.8088689,46.8908072 L81.0226552,58.2307281 C81.8880956,61.2844549 81.8813475,64.5194806 81.0031747,67.5695702 L79.3959021,73.151986 C78.894511,74.8934289 79.3746294,76.7698542 80.6508065,78.0564732 L95.9822557,93.5133673 L69.769123,108.771073 L56.1723315,94.5844792 C55.4937297,93.876441 54.6907229,93.2992139 53.803363,92.8815886 L46.7397733,89.5571943 C45.297101,88.8782178 43.9640228,87.9874097 42.7847256,86.9142971 L28.649696,74.0519935 L34.9499989,59.4454745 L62.7376366,76.7435102 C63.206499,77.0353503 63.823177,76.8918744 64.1150391,76.4230258 C64.2394006,76.223251 64.2893241,75.9860176 64.2560259,75.7530649 C64.039632,74.2391819 64.15936,72.2718706 64.6152099,69.851131 C65.3947693,65.7113681 67.3554866,61.9324719 70.4973619,58.5144423 L68.0998185,49.5666886 C67.3851094,46.8993581 68.9680219,44.1576733 71.6353524,43.4429643 Z" id="Rectangle" stroke="#0831EE" stroke-width="2" fill="#FFFFFF"></path>
                <rect id="Rectangle" stroke="#0831EE" stroke-width="2" fill="#BAC6FC" transform="translate(59.000000, 47.000000) rotate(26.000000) translate(-59.000000, -47.000000) " x="41" y="14" width="36" height="66" rx="4"></rect>
                <rect id="Rectangle" stroke="#0831EE" stroke-width="2" fill="#BAC6FC" transform="translate(67.000000, 44.000000) rotate(30.000000) translate(-67.000000, -44.000000) " x="49" y="11" width="36" height="66" rx="4"></rect>
                <g id="Group-5" transform="translate(75.000000, 43.000000) rotate(34.000000) translate(-75.000000, -43.000000) translate(57.000000, 10.000000)" stroke="#0831EE" stroke-width="2">
                    <rect id="Rectangle" fill="#BAC6FC" x="0" y="0" width="36" height="66" rx="4"></rect>
                    <path d="M25,6 C25,8.6887547 27.1223067,10.8818181 29.7831104,10.9953805 L30,11 L30,55 C27.3112453,55 25.1181819,57.1223067 25.0046195,59.7831104 L25,60 L11,60 C11,57.3112453 8.87769329,55.1181819 6.21688962,55.0046195 L6,55 L6,11 C8.6887547,11 10.8818181,8.87769329 10.9953805,6.21688962 L11,6 L25,6 Z M18,27 C14.6862915,27 12,29.6862915 12,33 C12,36.3137085 14.6862915,39 18,39 C21.3137085,39 24,36.3137085 24,33 C24,29.6862915 21.3137085,27 18,27 Z" id="Combined-Shape" fill="#FFFFFF" stroke-linejoin="round"></path>
                </g>
                <rect id="Rectangle" stroke="#0831EE" stroke-width="2" fill="#FFFFFF" transform="translate(30.292893, 68.792893) rotate(-45.000000) translate(-30.292893, -68.792893) " x="25.2928932" y="62.2928932" width="10" height="13" rx="5"></rect>
                <rect id="Rectangle" stroke="#0831EE" stroke-width="2" fill="#FFFFFF" transform="translate(34.000000, 58.000000) rotate(-45.000000) translate(-34.000000, -58.000000) " x="29" y="50" width="10" height="16" rx="5"></rect>
                <rect id="Rectangle" stroke="#0831EE" stroke-width="2" fill="#FFFFFF" transform="translate(39.000000, 49.000000) rotate(-45.000000) translate(-39.000000, -49.000000) " x="34" y="41" width="10" height="16" rx="5"></rect>
                <path d="M66.0050775,83.8707125 L64.2560259,75.7530649 C64.039632,74.2391819 64.15936,72.2718706 64.6152099,69.851131 C65.3947693,65.7113681 67.3554866,61.9324719 70.4973619,58.5144423 L68.0998185,49.5666886 C67.3851094,46.8993581 68.9680219,44.1576733 71.6353524,43.4429643 L71.70423,43.4245086 C74.3445096,42.7170478 77.0635584,44.2609614 77.8088689,46.8908072 L81.0226552,58.2307281 C81.8880956,61.2844549 81.8813475,64.5194806 81.0031747,67.5695702 L79.3959021,73.151986 C78.894511,74.8934289 79.3746294,76.7698542 80.6508065,78.0564732 L95.9822557,93.5133673 L96.1060446,93.6367395 C89.1507947,101.045393 80.1660908,106.526271 70.0393737,109.191934 L69.769123,108.771073 L56.1723315,94.5844792" id="Path" stroke="#0831EE" stroke-width="2" fill="#FFFFFF" stroke-linecap="round"></path>
            </g>
        </g>
    </g>
</svg>