<?xml version="1.0" encoding="UTF-8"?>
<svg width="140px" height="44px" viewBox="0 0 140 44" version="1.1" xmlns="http://www.w3.org/2000/svg" xmlns:xlink="http://www.w3.org/1999/xlink">
    <title>dploy-logo</title>
    <defs>
        <path d="M65.339208,5.3501624 L69.304488,14.8978236 L73.29608,5.3501624 L77.235136,5.3501624 L70.85386,20.2863628 C70.206092,21.9081588 69.40516,23.05039 68.45102,23.7130608 C67.496924,24.3757272 66.34584,24.7070604 64.997812,24.7070604 L64.997812,24.7070604 L64.866516,21.4111568 C65.426724,21.4111568 65.881904,21.2760064 66.232056,21.00571 C66.582164,20.7354092 66.897292,20.2863628 67.177396,19.6585752 L67.177396,19.6585752 L67.229932,19.5277852 L61.111292,5.3501624 L65.339208,5.3501624 Z M33.984324,5.1408984 C35.297328,5.1408984 36.492192,5.4417132 37.568872,6.0433472 C38.645552,6.6449812 39.490264,7.490758 40.103008,8.5806732 C40.715752,9.6705884 41.02208,10.9392492 41.02208,12.3866556 C41.02208,13.8340664 40.715752,15.1027272 40.103008,16.1926424 C39.490264,17.2825576 38.645552,18.12833 37.568872,18.729964 C36.492192,19.331598 35.297328,19.6324172 33.984324,19.6324172 C32.181116,19.6324172 30.76304,19.0656576 29.73014,17.9321472 L29.73014,17.9321472 L29.73014,24.4977964 L25.63352,24.4977964 L25.63352,5.3501624 L29.546308,5.3501624 L29.546308,6.9719584 L29.5769101,6.93552022 C30.5913729,5.73910283 32.0604966,5.1408984 33.984324,5.1408984 Z M15.391992,0.0139348 L15.391992,19.4231532 L11.479204,19.4231532 L11.479204,17.8013572 L11.4486058,17.8377953 C10.4343582,19.0342085 8.97394652,19.6324172 7.067456,19.6324172 C5.73694,19.6324172 4.533364,19.3359584 3.456684,18.7430452 C2.380004,18.150132 1.535292,17.3043552 0.922548,16.2057192 C0.309804,15.1070876 0.003432,13.8340664 0.003432,12.3866556 C0.003432,10.9392492 0.309804,9.666228 0.922548,8.567592 C1.535292,7.468956 2.380004,6.6231836 3.456684,6.0302704 C4.533364,5.4373572 5.73694,5.1408984 7.067456,5.1408984 C8.870664,5.1408984 10.279984,5.7076536 11.295372,6.8411684 L11.295372,6.8411684 L11.295372,0.0139348 L15.391992,0.0139348 Z M54.703748,5.1408984 C56.191828,5.1408984 57.522344,5.450434 58.69534,6.0695052 C59.868292,6.6885764 60.787408,7.54743 61.452644,8.646066 C62.117924,9.744702 62.450564,10.9915652 62.450564,12.3866556 C62.450564,13.7817504 62.117924,15.0286136 61.452644,16.1272452 C60.787408,17.2258812 59.868292,18.0847348 58.69534,18.703806 C57.522344,19.3228816 56.191828,19.6324172 54.703748,19.6324172 C53.215668,19.6324172 51.880752,19.3228816 50.699044,18.703806 C49.517336,18.0847348 48.59382,17.2258812 47.928584,16.1272452 C47.263304,15.0286136 46.930664,13.7817504 46.930664,12.3866556 C46.930664,10.9915652 47.263304,9.744702 47.928584,8.646066 C48.59382,7.54743 49.517336,6.6885764 50.699044,6.0695052 C51.880752,5.450434 53.215668,5.1408984 54.703748,5.1408984 Z M46.011548,0.0139348 L46.011548,19.4231532 L41.914972,19.4231532 L41.914972,0.0139348 L46.011548,0.0139348 Z M7.776516,8.489118 C6.72606,8.489118 5.85948,8.8422532 5.176732,9.5485148 C4.49394,10.2547808 4.152588,11.2008292 4.152588,12.3866556 C4.152588,13.5724864 4.49394,14.5185304 5.176732,15.2247964 C5.85948,15.9310624 6.72606,16.2841932 7.776516,16.2841932 C8.809416,16.2841932 9.66724,15.9310624 10.350032,15.2247964 C11.03278,14.5185304 11.374176,13.5724864 11.374176,12.3866556 C11.374176,11.2008292 11.03278,10.2547808 10.350032,9.5485148 C9.66724,8.8422532 8.809416,8.489118 7.776516,8.489118 Z M33.275308,8.489118 C32.224896,8.489118 31.362672,8.8422532 30.688636,9.5485148 C30.014644,10.2547808 29.677648,11.2008292 29.677648,12.3866556 C29.677648,13.5724864 30.014644,14.5185304 30.688636,15.2247964 C31.362672,15.9310624 32.224896,16.2841932 33.275308,16.2841932 C34.32572,16.2841932 35.187944,15.9310624 35.861936,15.2247964 C36.535972,14.5185304 36.872968,13.5724864 36.872968,12.3866556 C36.872968,11.2008292 36.535972,10.2547808 35.861936,9.5485148 C35.187944,8.8422532 34.32572,8.489118 33.275308,8.489118 Z M54.703748,8.489118 C53.653336,8.489118 52.786756,8.8422532 52.103964,9.5485148 C51.421216,10.2547808 51.07982,11.2008292 51.07982,12.3866556 C51.07982,13.5724864 51.421216,14.5185304 52.103964,15.2247964 C52.786756,15.9310624 53.653336,16.2841932 54.703748,16.2841932 C55.75416,16.2841932 56.616384,15.9310624 57.290376,15.2247964 C57.964412,14.5185304 58.301408,13.5724864 58.301408,12.3866556 C58.301408,11.2008292 57.964412,10.2547808 57.290376,9.5485148 C56.616384,8.8422532 55.75416,8.489118 54.703748,8.489118 Z M24.241756,10.42481 L24.241756,13.6945556 L16.810068,13.6945556 L16.810068,10.42481 L24.241756,10.42481 Z" id="path-1"></path>
        <path d="M18.150176,0.0046728 C18.615872,0.0046728 18.960656,0.1543168 19.184528,0.4536092 C19.359296,0.68706 19.446724,0.9857496 19.446724,1.3496912 C19.446724,1.7435572 19.346756,2.0709832 19.14682,2.3319648 C18.912168,2.6384424 18.577548,2.7916812 18.143004,2.7916812 C17.737148,2.7916812 17.418104,2.6575956 17.185872,2.3894288 C16.97872,2.1308408 16.875188,1.8040176 16.875188,1.4089504 C16.875188,1.052194 16.96376,0.7469176 17.140948,0.4931168 C17.368428,0.167486 17.704808,0.0046728 18.150176,0.0046728 Z M51.250848,0.0046728 C51.716544,0.0046728 52.061328,0.1543168 52.2852,0.4536092 C52.459968,0.68706 52.547396,0.9857496 52.547396,1.3496912 C52.547396,1.7435572 52.447428,2.0709832 52.247492,2.3319648 C52.01284,2.6384424 51.67822,2.7916812 51.243676,2.7916812 C50.83782,2.7916812 50.518776,2.6575956 50.286544,2.3894288 C50.079436,2.1308408 49.97586,1.8040176 49.97586,1.4089504 C49.97586,1.052194 50.064432,0.7469176 50.24162,0.4931168 C50.4691,0.167486 50.80548,0.0046728 51.250848,0.0046728 Z M62.850128,0.0100584 C63.126668,0.0100584 63.361628,0.076802 63.554964,0.2102848 C63.7483,0.343772 63.844968,0.5571632 63.844968,0.8504716 L63.844968,0.8504716 L63.50916,0.8504716 L63.5064568,0.830514666 C63.487512,0.698961631 63.450091,0.597272343 63.394232,0.5254392 C63.285288,0.3877676 63.100312,0.3189296 62.839348,0.3189296 C62.628632,0.3189296 62.477228,0.3632244 62.385004,0.451814 C62.292824,0.5404036 62.246756,0.6433636 62.246756,0.7606852 C62.246756,0.8899792 62.300612,0.9845528 62.408368,1.0444148 C62.478988,1.0827212 62.63884,1.1306108 62.887836,1.1880748 L62.887836,1.1880748 L63.257744,1.2724712 L63.2807796,1.27786533 C63.4480149,1.31804465 63.5780123,1.37191541 63.670772,1.4394776 C63.838368,1.5627876 63.922188,1.741762 63.922188,1.9764096 C63.922188,2.2685168 63.815928,2.4774244 63.603452,2.6031236 C63.390932,2.7288272 63.144048,2.7916812 62.862712,2.7916812 C62.534692,2.7916812 62.277864,2.7078788 62.092316,2.540274 C61.906768,2.373866 61.815776,2.1482032 61.819384,1.8632768 L61.819384,1.8632768 L62.155148,1.8632768 L62.1565318,1.88446316 C62.1669779,2.02442983 62.2018467,2.13888211 62.2611,2.2278124 C62.379636,2.402598 62.588548,2.4899908 62.887836,2.4899908 C63.021904,2.4899908 63.144048,2.4708376 63.25418,2.4325268 C63.467272,2.3583032 63.573796,2.2254188 63.573796,2.0338736 C63.573796,1.8902136 63.528916,1.787852 63.439112,1.7267976 C63.348164,1.66694 63.205692,1.6148616 63.01174,1.5705668 L63.01174,1.5705668 L62.654372,1.4897608 L62.6304684,1.48429226 C62.4096387,1.43307329 62.252388,1.37683359 62.158756,1.3155692 C61.99116,1.2054328 61.90734,1.04082 61.90734,0.8217396 C61.90734,0.5846984 61.989356,0.3901612 62.153388,0.2381192 C62.317376,0.0860816 62.549652,0.0100584 62.850128,0.0100584 Z M1.104224,0.0765028 L1.12589048,0.0766572347 C1.47818086,0.0817021022 1.75229384,0.210346224 1.948188,0.4625896 C2.126564,0.6948392 2.215752,0.9923364 2.215752,1.3550768 C2.215752,1.635216 2.163084,1.888414 2.057748,2.1146796 C1.8722,2.514534 1.553156,2.7144612 1.100616,2.7144612 L1.100616,2.7144612 L0.035728,2.7144612 L0.035728,0.0765028 L1.104224,0.0765028 Z M6.479044,0.0765028 L6.479044,0.3997356 L4.904196,0.3997356 L4.904196,1.2006412 L6.360552,1.2006412 L6.360552,1.505922 L4.904196,1.505922 L4.904196,2.4002044 L6.506016,2.4002044 L6.506016,2.7144612 L4.555804,2.7144612 L4.555804,0.0765028 L6.479044,0.0765028 Z M10.041988,0.0765028 L10.0638533,0.0766965846 C10.2884178,0.0807014656 10.4702854,0.146781937 10.609456,0.274934 C10.753116,0.40722 10.824968,0.5930804 10.824968,0.8325152 C10.824968,1.0384264 10.760904,1.2177044 10.63282,1.3703404 C10.504692,1.5229808 10.307792,1.5992988 10.041988,1.5992988 L10.041988,1.5992988 L9.212368,1.5992988 L9.212368,2.7144612 L8.855,2.7144612 L8.855,0.0765028 L10.041988,0.0765028 Z M13.477464,0.0765028 L13.477464,2.4002044 L14.81348,2.4002044 L14.81348,2.7144612 L13.120096,2.7144612 L13.120096,0.0765028 L13.477464,0.0765028 Z M21.930392,0.0765028 L22.688204,1.3443012 L23.446016,0.0765028 L23.864412,0.0765028 L22.867768,1.6513772 L22.867768,2.7144612 L22.510444,2.7144612 L22.510444,1.6513772 L21.5138,0.0765028 L21.930392,0.0765028 Z M29.905656,0.0765028 L29.9273251,0.0766572347 C30.2796569,0.0817021022 30.5537698,0.210346224 30.749664,0.4625896 C30.92804,0.6948392 31.017228,0.9923364 31.017228,1.3550768 C31.017228,1.635216 30.96456,1.888414 30.859224,2.1146796 C30.673676,2.514534 30.354632,2.7144612 29.902092,2.7144612 L29.902092,2.7144612 L28.837204,2.7144612 L28.837204,0.0765028 L29.905656,0.0765028 Z M35.28052,0.0765028 L35.28052,0.3997356 L33.705672,0.3997356 L33.705672,1.2006412 L35.162028,1.2006412 L35.162028,1.505922 L33.705672,1.505922 L33.705672,2.4002044 L35.307492,2.4002044 L35.307492,2.7144612 L33.35728,2.7144612 L33.35728,0.0765028 L35.28052,0.0765028 Z M37.830672,0.0765028 L38.588484,2.3229888 L39.33732,0.0765028 L39.737764,0.0765028 L38.77522,2.7144612 L38.396336,2.7144612 L37.435596,0.0765028 L37.830672,0.0765028 Z M43.878956,0.0765028 L43.878956,0.3997356 L42.304064,0.3997356 L42.304064,1.2006412 L43.76042,1.2006412 L43.76042,1.505922 L42.304064,1.505922 L42.304064,2.4002044 L43.905884,2.4002044 L43.905884,2.7144612 L41.955672,2.7144612 L41.955672,0.0765028 L43.878956,0.0765028 Z M46.578136,0.0765028 L46.578136,2.4002044 L47.914152,2.4002044 L47.914152,2.7144612 L46.220768,2.7144612 L46.220768,0.0765028 L46.578136,0.0765028 Z M56.040292,0.0765028 L56.0621573,0.0766965846 C56.2867218,0.0807014656 56.4685894,0.146781937 56.60776,0.274934 C56.75142,0.40722 56.823228,0.5930804 56.823228,0.8325152 C56.823228,1.0384264 56.759208,1.2177044 56.63108,1.3703404 C56.502996,1.5229808 56.306052,1.5992988 56.040292,1.5992988 L56.040292,1.5992988 L55.210672,1.5992988 L55.210672,2.7144612 L54.853304,2.7144612 L54.853304,0.0765028 L56.040292,0.0765028 Z M68.178308,0.0765028 L68.178308,0.3997356 L66.603416,0.3997356 L66.603416,1.2006412 L68.059772,1.2006412 L68.059772,1.505922 L66.603416,1.505922 L66.603416,2.4002044 L68.205236,2.4002044 L68.205236,2.7144612 L66.255024,2.7144612 L66.255024,0.0765028 L68.178308,0.0765028 Z M70.877488,0.0765028 L70.877488,2.4002044 L72.213504,2.4002044 L72.213504,2.7144612 L70.52012,2.7144612 L70.52012,0.0765028 L70.877488,0.0765028 Z M74.769068,0.0765028 L74.769068,2.4002044 L76.105084,2.4002044 L76.105084,2.7144612 L74.4117,2.7144612 L74.4117,0.0765028 L74.769068,0.0765028 Z M18.171736,0.32252 C17.89876,0.32252 17.676076,0.4162004 17.503684,0.6035568 C17.331292,0.7909132 17.245096,1.0671584 17.245096,1.4322968 C17.245096,1.724404 17.319016,1.9707204 17.4669,2.171246 C17.61474,2.3717716 17.854452,2.4720344 18.18608,2.4720344 C18.500944,2.4720344 18.728688,2.3592008 18.869356,2.133538 C19.010024,1.9078708 19.08038,1.6483852 19.08038,1.3550768 C19.08038,1.0450132 18.999244,0.7954012 18.83706,0.6062496 C18.674832,0.417098 18.453072,0.32252 18.171736,0.32252 Z M51.272408,0.32252 C50.999432,0.32252 50.776748,0.4162004 50.604356,0.6035568 C50.431964,0.7909132 50.345768,1.0671584 50.345768,1.4322968 C50.345768,1.724404 50.419732,1.9707204 50.567572,2.171246 C50.715412,2.3717716 50.955124,2.4720344 51.286752,2.4720344 C51.601616,2.4720344 51.82936,2.3592008 51.970028,2.133538 C52.110696,1.9078708 52.181052,1.6483852 52.181052,1.3550768 C52.181052,1.0450132 52.099916,0.7954012 51.937732,0.6062496 C51.775504,0.417098 51.553744,0.32252 51.272408,0.32252 Z M1.028764,0.3835744 L0.3949,0.3835744 L0.3949,2.4091848 L1.032372,2.4091848 C1.153284,2.4091848 1.252636,2.396614 1.330472,2.3714724 C1.469336,2.324784 1.583076,2.2349976 1.671648,2.1021088 C1.742312,1.9955628 1.793176,1.8590836 1.824284,1.69268 C1.842236,1.5933148 1.851256,1.5011304 1.851256,1.4161312 C1.851256,1.089308 1.786268,0.8355072 1.65638,0.6547332 C1.526492,0.4739636 1.317316,0.3835744 1.028764,0.3835744 L1.028764,0.3835744 Z M29.83024,0.3835744 L29.196376,0.3835744 L29.196376,2.4091848 L29.833848,2.4091848 C29.95476,2.4091848 30.054112,2.396614 30.131948,2.3714724 C30.270812,2.324784 30.384552,2.2349976 30.473124,2.1021088 C30.543788,1.9955628 30.594652,1.8590836 30.62576,1.69268 C30.643712,1.5933148 30.652732,1.5011304 30.652732,1.4161312 C30.652732,1.089308 30.587744,0.8355072 30.457856,0.6547332 C30.327968,0.4739636 30.118792,0.3835744 29.83024,0.3835744 L29.83024,0.3835744 Z M9.923496,0.3835744 L9.212368,0.3835744 L9.212368,1.2976128 L9.923496,1.2976128 C10.08392,1.2976128 10.214116,1.2634952 10.31404,1.1952556 C10.414008,1.127016 10.463992,1.0067024 10.463992,0.8343104 C10.463992,0.6403672 10.392184,0.5086796 10.248524,0.4392432 C10.1695,0.4021336 10.061172,0.3835744 9.923496,0.3835744 L9.923496,0.3835744 Z M55.921756,0.3835744 L55.210672,0.3835744 L55.210672,1.2976128 L55.921756,1.2976128 C56.08218,1.2976128 56.212376,1.2634952 56.312344,1.1952556 C56.412312,1.127016 56.462296,1.0067024 56.462296,0.8343104 C56.462296,0.6403672 56.390444,0.5086796 56.246784,0.4392432 C56.167804,0.4021336 56.059432,0.3835744 55.921756,0.3835744 L55.921756,0.3835744 Z" id="path-3"></path>
        <path d="M20.22735,0 C24.0214084,0 27.4149128,1.7149968 29.6749288,4.4120648 C31.0658392,3.9359716 32.5580904,3.6777004 34.1106656,3.6777004 C41.6766504,3.6777004 47.810092,9.8111464 47.810092,17.3771312 C47.810092,24.9431204 41.6766504,31.076562 34.1106656,31.076562 C33.8622108,31.076562 33.615296,31.0699488 33.3700972,31.0568852 C33.1590292,31.0698828 32.946056,31.076562 32.7315296,31.076562 L29.0728284,31.076562 L28.9711356,31.088354 C28.327354,31.1630044 27.7414764,31.4958424 27.3477292,32.010616 L19.9135772,41.7298033 L21.5363412,42.9976391 C21.7764272,43.1852128 21.8189928,43.5318981 21.6314208,43.7719818 C21.526868,43.9057995 21.3665144,43.9840041 21.1966964,43.9840041 L15.7626788,43.9840041 C15.5094192,43.9840041 15.2886976,43.8114316 15.2274232,43.5656981 L13.9126988,38.2931208 C13.8389856,37.9975024 14.0188752,37.6981 14.314498,37.6243868 C14.4792692,37.5832996 14.653782,37.6203916 14.7875992,37.72494 L16.4641092,39.0347584 L23.8756628,29.168216 C25.0203184,27.6443992 26.7975136,26.7258948 28.7026432,26.673504 L29.0728284,26.6633224 L34.7542624,26.6633224 C35.6098908,26.6633224 36.4228612,26.4807048 37.1563368,26.1523372 C40.7890208,24.8916844 43.3968568,21.438956 43.3968568,17.3771312 C43.3968568,12.2485088 39.239288,8.09094 34.1106656,8.09094 C32.2447884,8.09094 30.507444,8.6412436 29.052078,9.5884096 C28.9903856,9.6285552 28.9144504,9.681738 28.8321352,9.7414064 C28.625498,9.8632864 28.4457272,9.9024816 28.2928184,9.8589876 C27.9854696,9.771564 27.864012,9.4176588 27.7921248,9.2570192 C26.514576,6.4022508 23.6492124,4.4132396 20.3192924,4.4132396 C15.8000084,4.4132396 12.13641,8.0768424 12.13641,12.596122 C12.13641,12.8985824 12.1528176,13.1972104 12.1847968,13.4911656 L12.1924528,13.5589168 L12.1901472,13.5482952 C12.1925012,13.563814 12.1947804,13.579192 12.1966988,13.5944556 C12.20285,13.645038 12.2094632,13.6954796 12.2167936,13.7457276 C12.2602128,14.117642 12.2513292,14.3974644 12.1901472,14.5851992 C12.1196284,14.8015868 11.8189456,14.9049164 11.2880988,14.8951968 L11.264176,14.894682 L10.4814424,14.894682 C7.2316244,14.894682 4.5971244,17.529182 4.5971244,20.7790044 C4.5971244,23.996324 7.1791984,26.6105708 10.3841364,26.6625348 L10.4814424,26.6633224 L11.395296,26.6633224 C12.11078,26.6633224 12.7854144,26.3299828 13.2200992,25.7616876 L20.580692,16.1386676 L18.9579236,14.8708428 C18.717842,14.6832664 18.675272,14.3365816 18.8628484,14.0965 C18.9673968,13.9626784 19.1277504,13.8844728 19.2975684,13.8844772 L24.7315904,13.884596 C24.9848456,13.8846004 25.2055672,14.0570496 25.2668416,14.3027808 L26.581566,19.575358 C26.6552792,19.8709764 26.4753896,20.1703788 26.1797712,20.244092 C26.015,20.2851792 25.8404872,20.2480872 25.70667,20.1435388 L24.03016,18.8337116 L16.7071388,28.5824044 C15.5124596,30.1728152 13.632278,31.0998336 11.6432492,31.0791404 L11.395296,31.076562 L10.1136728,31.076562 C4.5280444,31.076562 0,26.5485176 0,20.9628892 C0,16.1131036 3.4135904,12.0606112 7.9691392,11.0770352 C8.5922804,4.8566364 13.8426508,0 20.22735,0 Z" id="path-5"></path>
    </defs>
    <g id="Page-1" stroke="none" stroke-width="1" fill="none" fill-rule="evenodd">
        <g id="01---Homepage" transform="translate(-40.000000, -19.000000)">
            <g id="dploy-logo" transform="translate(40.000000, 19.000000)">
                <g id="Group-3" transform="translate(61.204000, 6.028000)">
                    <mask id="mask-2" fill="white">
                        <use xlink:href="#path-1"></use>
                    </mask>
                    <g id="Clip-2"></g>
                    <polygon id="Fill-1" fill-opacity="0.904" fill="#000000" mask="url(#mask-2)" points="-0.216568 -0.2060652 77.455136 -0.2060652 77.455136 24.9270604 -0.216568 24.9270604"></polygon>
                </g>
                <g id="Group-6" transform="translate(61.468000, 35.376000)">
                    <mask id="mask-4" fill="white">
                        <use xlink:href="#path-3"></use>
                    </mask>
                    <g id="Clip-5"></g>
                    <polygon id="Fill-4" fill="#000000" mask="url(#mask-4)" points="-0.184272 -0.2153272 76.325084 -0.2153272 76.325084 3.0116812 -0.184272 3.0116812"></polygon>
                </g>
                <g id="Group-9">
                    <mask id="mask-6" fill="white">
                        <use xlink:href="#path-5"></use>
                    </mask>
                    <g id="Clip-8"></g>
                    <polygon id="Fill-7" fill="#0831EE" mask="url(#mask-6)" points="0 44 138.6 44 138.6 0 0 0"></polygon>
                </g>
            </g>
        </g>
    </g>
</svg>