<?xml version="1.0" encoding="UTF-8"?>
<svg width="112px" height="112px" viewBox="0 0 112 112" version="1.1" xmlns="http://www.w3.org/2000/svg" xmlns:xlink="http://www.w3.org/1999/xlink">
    <title>icons / 112 / secured</title>
    <g id="Page-1" stroke="none" stroke-width="1" fill="none" fill-rule="evenodd">
        <g id="01---Homepage" transform="translate(-326.000000, -3696.000000)">
            <g id="icons-/-112-/-secured" transform="translate(326.000000, 3696.000000)">
                <circle id="Oval" fill="#E6EAFE" cx="56" cy="56" r="56"></circle>
                <circle id="Oval" fill="#BAC6FC" cx="56" cy="54" r="23"></circle>
                <path d="M66,50 C66.5522847,50 67,50.4477153 67,51 L67,67 C67,67.5522847 66.5522847,68 66,68 L46,68 C45.4477153,68 45,67.5522847 45,67 L45,51 C45,50.4477153 45.4477153,50 46,50 L66,50 Z M56,54 C54.3431458,54 53,55.3431458 53,57 C53,57.8885473 53.3862919,58.6868712 54.0000983,59.2361945 L54.0000983,59.2361945 L54,62 C54,63.1045695 54.8954305,64 56,64 C57.1045695,64 58,63.1045695 58,62 L58,62 L58.0008825,59.2353163 C58.6141196,58.6860206 59,57.8880739 59,57 C59,55.3431458 57.6568542,54 56,54 Z" id="Combined-Shape" stroke="#0831EE" stroke-width="2" fill="#FFFFFF"></path>
                <path d="M56,38 C60.418278,38 64,41.581722 64,46 L64,50 L59,50 L59,46 C59,44.3431458 57.6568542,43 56,43 C54.3431458,43 53,44.3431458 53,46 L53,46 L53,50 L48,50 L48,46 C48,41.581722 51.581722,38 56,38 Z" id="Combined-Shape" stroke="#0831EE" stroke-width="2" fill="#FFFFFF"></path>
                <path d="M57.2972973,13.4447876 L88.2972973,24.0733591 C89.9140579,24.627677 91,26.1479959 91,27.8571429 L91,58.2690338 C91,70.4701666 84.4622738,81.7358435 73.8687239,87.7893006 L57.9845558,96.8659681 C56.7548251,97.5686714 55.2451749,97.5686714 54.0154442,96.8659681 L38.1312761,87.7893006 C27.5377262,81.7358435 21,70.4701666 21,58.2690338 L21,27.8571429 C21,26.1479959 22.0859421,24.627677 23.7027027,24.0733591 L54.7027027,13.4447876 C55.5435435,13.1564994 56.4564565,13.1564994 57.2972973,13.4447876 Z M56,31 C43.2974508,31 33,41.2974508 33,54 C33,66.7025492 43.2974508,77 56,77 C68.7025492,77 79,66.7025492 79,54 C79,41.2974508 68.7025492,31 56,31 Z" id="Combined-Shape" stroke="#0831EE" stroke-width="2" fill="#FFFFFF"></path>
            </g>
        </g>
    </g>
</svg>