<?xml version="1.0" encoding="UTF-8"?>
<svg width="112px" height="112px" viewBox="0 0 112 112" version="1.1" xmlns="http://www.w3.org/2000/svg" xmlns:xlink="http://www.w3.org/1999/xlink">
    <title>icons / 112 / simple</title>
    <g id="Page-1" stroke="none" stroke-width="1" fill="none" fill-rule="evenodd">
        <g id="01---Homepage" transform="translate(-1002.000000, -3696.000000)">
            <g id="icons-/-112-/-simple" transform="translate(1002.000000, 3696.000000)">
                <circle id="Oval" fill="#E6EAFE" cx="56" cy="56" r="56"></circle>
                <path d="M32,24 L86,24 C89.3137085,24 92,26.6862915 92,30 L92,71 C91.7894989,76.2401496 89.9605543,80.5839184 86.5131663,84.0313064 C83.0657783,87.4786944 78.5613895,89.468259 73,90 L73,90 L32,90 C28.6862915,90 26,87.3137085 26,84 L26,30 C26,26.6862915 28.6862915,24 32,24 Z" id="Rectangle" stroke="#0831EE" stroke-width="2" fill="#FFFFFF"></path>
                <circle id="Oval" stroke="#0831EE" stroke-width="2" fill="#BAC6FC" cx="78" cy="13" r="7"></circle>
                <path d="M78.5571484,71 L90.9357924,71 C91.4880897,70.9999773 91.9358152,71.4477027 91.9358152,72 C91.9358152,72.0283901 91.9346062,72.0567674 91.9321915,72.0850546 C91.5260732,76.8426574 89.7197314,80.8247413 86.5131663,84.0313064 C83.1078607,87.436612 78.6712025,89.4194683 73.2031918,89.9798753 L73.2032225,89.9801743 C73.1481167,89.985822 73.0988662,89.9457283 73.0932185,89.8906225 C73.0909558,89.8685452 73.0960792,89.8463408 73.1077862,89.8274868 C75.1053504,86.6104384 76.3387212,83.5012762 76.8078987,80.5 C77.167791,78.1978098 77.0978812,75.8321396 76.5981695,73.4029897 C76.375605,72.3210758 77.0722443,71.2635865 78.1541579,71.041021 C78.2867536,71.0137442 78.4217761,71 78.5571484,71 Z" id="Rectangle" stroke="#0831EE" stroke-width="2" fill="#BAC6FC"></path>
                <line x1="72.5" y1="18.5" x2="59.5" y2="32.5" id="Line" stroke="#0831EE" stroke-width="2" stroke-linecap="round"></line>
                <path d="M38,44.9955783 L39.5868283,46.5847454 C40.3662596,47.3674092 41.6325893,47.3683417 42.4142128,46.5878685 C42.4145602,46.5875216 42.4149075,46.5871746 42.4142136,46.5857864 L43.5857864,45.4142136 C44.366835,44.633165 45.633165,44.633165 46.4142136,45.4142136 L47.5857864,46.5857864 C48.366835,47.366835 49.633165,47.366835 50.4142136,46.5857864 L51.5857864,45.4142136 C52.366835,44.633165 53.633165,44.633165 54.4142136,45.4142136 L55.5857864,46.5857864 C56.366835,47.366835 57.633165,47.366835 58.4142136,46.5857864 L59.5857864,45.4142136 C60.366835,44.633165 61.633165,44.633165 62.4142136,45.4142136 L63.5857864,46.5857864 C64.366835,47.366835 65.633165,47.366835 66.4142136,46.5857864 L67.5857864,45.4142136 C68.3671036,44.6337777 69.6330938,44.6335805 70.4146541,45.4137729 L71.5878391,46.5862271 C72.36835,47.3678138 73.6346799,47.3674193 74.4154851,46.5861274 C74.4157455,46.5858668 74.4160059,46.5856062 74.4154842,46.5845649 L75.5847457,45.4132808 C76.365119,44.6315575 77.6314485,44.6304632 78.4131717,45.4108366 C78.4139269,45.4115904 78.4146815,45.4123449 78.4154354,45.4130999 L80,47 L80,47" id="Path-2" stroke="#0831EE" stroke-width="2" stroke-linecap="round" stroke-linejoin="round"></path>
                <path d="M38,57 L39.5868283,58.5891671 C40.3662596,59.3718309 41.6325893,59.3727634 42.4142128,58.5922902 C42.4145602,58.5919433 42.4149075,58.5915963 42.4142136,58.5902081 L43.5857864,57.4186352 C44.366835,56.6375867 45.633165,56.6375867 46.4142136,57.4186352 L47.5857864,58.5902081 C48.366835,59.3712567 49.633165,59.3712567 50.4142136,58.5902081 L51.5857864,57.4186352 C52.366835,56.6375867 53.633165,56.6375867 54.4142136,57.4186352 L55.5857864,58.5902081 C56.366835,59.3712567 57.633165,59.3712567 58.4142136,58.5902081 L59.5857864,57.4186352 C60.366835,56.6375867 61.633165,56.6375867 62.4142136,57.4186352 L63.5857864,58.5902081 C64.366835,59.3712567 65.633165,59.3712567 66.4142136,58.5902081 L67.5857864,57.4186352 C68.3671036,56.6381994 69.6330938,56.6380022 70.4146541,57.4181946 L71.5878391,58.5906488 C72.36835,59.3722355 73.6346799,59.371841 74.4154851,58.5905491 C74.4157455,58.5902885 74.4160059,58.5900279 74.4154842,58.5889865 L75.5847457,57.4177024 C76.365119,56.6359792 77.6314485,56.6348849 78.4131717,57.4152582 C78.4139269,57.4160121 78.4146815,57.4167666 78.4154354,57.4175216 L80,59.0044217 L80,59.0044217" id="Path-2" stroke="#0831EE" stroke-width="2" stroke-linecap="round" stroke-linejoin="round"></path>
                <path d="M38,69 L39.5868283,70.5891671 C40.3662596,71.3718309 41.6325893,71.3727634 42.4142128,70.5922902 C42.4145602,70.5919433 42.4149075,70.5915963 42.4142136,70.5902081 L43.5857864,69.4186352 C44.366835,68.6375867 45.633165,68.6375867 46.4142136,69.4186352 L47.5857864,70.5902081 C48.366835,71.3712567 49.633165,71.3712567 50.4142136,70.5902081 L51.5857864,69.4186352 C52.366835,68.6375867 53.633165,68.6375867 54.4142136,69.4186352 L55.5857864,70.5902081 C56.366835,71.3712567 57.633165,71.3712567 58.4142136,70.5902081 L59.5857864,69.4186352 C60.366835,68.6375867 61.633165,68.6375867 62.4142136,69.4186352 L64,71.0044217 L64,71.0044217" id="Path-2" stroke="#0831EE" stroke-width="2" stroke-linecap="round" stroke-linejoin="round"></path>
            </g>
        </g>
    </g>
</svg>